<svg width="20" height="20" viewBox="0 0 20 20" fill="none" xmlns="http://www.w3.org/2000/svg">
<path d="M19.8008 6.00004C19.8008 6.00004 19.6055 4.62113 19.0039 4.01566C18.2422 3.21879 17.3906 3.21488 17 3.16801C14.2031 2.96488 10.0039 2.96488 10.0039 2.96488H9.99609C9.99609 2.96488 5.79687 2.96488 3 3.16801C2.60938 3.21488 1.75781 3.21879 0.996094 4.01566C0.394531 4.62113 0.203125 6.00004 0.203125 6.00004C0.203125 6.00004 0 7.62113 0 9.23832V10.7539C0 12.3711 0.199219 13.9922 0.199219 13.9922C0.199219 13.9922 0.394531 15.3711 0.992187 15.9766C1.75391 16.7735 2.75391 16.7461 3.19922 16.8321C4.80078 16.9844 10 17.0313 10 17.0313C10 17.0313 14.2031 17.0235 17 16.8243C17.3906 16.7774 18.2422 16.7735 19.0039 15.9766C19.6055 15.3711 19.8008 13.9922 19.8008 13.9922C19.8008 13.9922 20 12.375 20 10.7539V9.23832C20 7.62113 19.8008 6.00004 19.8008 6.00004ZM7.93359 12.5938V6.97269L13.3359 9.79301L7.93359 12.5938Z" fill="#969696"/>
</svg>
